<svg xmlns="http://www.w3.org/2000/svg" viewBox="0 0 1700 512">
    <g fill="#333333">
        <rect fill="#F1DD35" x="6" y="6" width="500" height="500" rx="32" ry="32" />
        <path d="M 202.294 270.027 C 191.175 270.027 183.056 275.956 177.939 287.813 C 172.822 299.671 170.263 318.835 170.263 345.306 C 170.263 371.679 172.822 390.794 177.939 402.652 C 183.056 414.51 191.175 420.439 202.294 420.439 C 213.512 420.439 221.68 414.51 226.797 402.652 C 231.914 390.794 234.473 371.679 234.473 345.306 C 234.473 318.835 231.914 299.671 226.797 287.813 C 221.68 275.956 213.512 270.027 202.294 270.027 Z M 124.948 345.306 C 124.948 307.617 131.467 279.129 144.506 259.842 C 157.545 240.555 176.807 230.911 202.294 230.911 C 227.879 230.911 247.191 240.555 260.23 259.842 C 273.269 279.129 279.788 307.617 279.788 345.306 C 279.788 382.897 273.269 411.336 260.23 430.624 C 247.191 449.911 227.879 459.555 202.294 459.555 C 176.807 459.555 157.545 449.911 144.506 430.624 C 131.467 411.336 124.948 382.897 124.948 345.306 Z" />
        <path d="M 406.124 455.274 L 362.58 455.274 L 362.58 272.979 L 306.636 272.979 L 306.636 234.896 L 462.067 234.896 L 462.067 272.979 L 406.124 272.979 L 406.124 455.274 Z" />
    </g>
    <g fill="#4493f8">
        <path d="M 619.577 97.548 C 611.598 97.548 605.773 101.803 602.1 110.312 C 598.428 118.821 596.592 132.573 596.592 151.567 C 596.592 170.49 598.428 184.206 602.1 192.717 C 605.773 201.226 611.598 205.479 619.577 205.479 C 627.627 205.479 633.486 201.226 637.158 192.717 C 640.831 184.206 642.667 170.49 642.667 151.567 C 642.667 132.573 640.831 118.821 637.158 110.312 C 633.486 101.803 627.627 97.548 619.577 97.548 Z M 564.076 151.567 C 564.076 124.523 568.754 104.08 578.11 90.24 C 587.466 76.399 601.288 69.48 619.577 69.48 C 637.936 69.48 651.794 76.399 661.15 90.24 C 670.505 104.08 675.183 124.523 675.183 151.567 C 675.183 178.541 670.505 198.948 661.15 212.788 C 651.794 226.628 637.936 233.548 619.577 233.548 C 601.288 233.548 587.466 226.628 578.11 212.788 C 568.754 198.948 564.076 178.541 564.076 151.567 Z" />
        <path d="M 763.696 131.875 L 763.696 154.78 C 758.864 151.678 753.839 149.336 748.62 147.756 C 743.401 146.175 738.166 145.385 732.917 145.385 C 727.072 145.385 722.658 146.235 719.675 147.935 C 716.693 149.635 715.202 152.155 715.202 155.495 C 715.202 160.267 721.584 164.144 734.349 167.127 L 735.333 167.395 L 742.849 169.185 C 752.393 171.452 759.386 175.105 763.83 180.145 C 768.274 185.186 770.496 192 770.496 200.59 C 770.496 210.91 767.111 218.649 760.341 223.808 C 753.571 228.968 743.385 231.548 729.786 231.548 C 723.761 231.548 717.588 231.026 711.265 229.982 C 704.942 228.939 698.53 227.372 692.028 225.284 L 692.028 202.379 C 697.813 205.66 703.703 208.165 709.698 209.895 C 715.694 211.624 721.494 212.49 727.101 212.49 C 733.245 212.49 737.898 211.595 741.059 209.805 C 744.22 208.017 745.801 205.422 745.801 202.021 C 745.801 198.681 744.682 196.116 742.446 194.326 C 740.209 192.538 734.886 190.629 726.475 188.6 L 719.228 186.99 C 709.207 184.722 701.9 181.174 697.307 176.342 C 692.714 171.511 690.417 165.039 690.417 156.927 C 690.417 147.264 693.907 139.748 700.886 134.38 C 707.864 129.011 717.677 126.326 730.322 126.326 C 735.99 126.326 741.642 126.789 747.278 127.714 C 752.915 128.638 758.387 130.025 763.696 131.875 Z" />
        <path d="M 837.608 102.29 L 837.608 130.742 L 871.876 130.742 L 871.876 150.874 L 837.608 150.874 L 837.608 198.295 C 837.608 202.769 838.696 205.975 840.873 207.913 C 843.051 209.853 846.674 210.822 851.745 210.822 L 871.876 210.822 L 871.876 230.953 L 849.865 230.953 C 834.835 230.953 824.664 228.552 819.355 223.75 C 814.046 218.949 811.392 210.046 811.392 197.042 L 811.392 150.874 L 785.802 150.874 L 785.802 130.742 L 811.392 130.742 L 811.392 102.29 L 837.608 102.29 Z" />
        <path d="M 981.604 226.032 C 975.52 228.537 969.316 230.415 962.993 231.669 C 956.67 232.922 949.99 233.548 942.952 233.548 C 926.19 233.548 913.381 229.059 904.523 220.082 C 895.665 211.105 891.236 198.176 891.236 181.295 C 891.236 164.951 895.5 152.038 904.03 142.553 C 912.56 133.068 924.192 128.326 938.926 128.326 C 953.777 128.326 965.304 132.725 973.506 141.524 C 981.708 150.323 985.809 162.715 985.809 178.701 L 985.809 189.348 L 917.899 189.348 C 917.959 197.221 920.285 203.096 924.878 206.974 C 929.47 210.851 936.331 212.79 945.457 212.79 C 951.482 212.79 957.417 211.924 963.262 210.195 C 969.107 208.465 975.222 205.722 981.604 201.963 L 981.604 226.032 Z M 959.415 169.664 C 959.296 162.744 957.521 157.511 954.091 153.961 C 950.661 150.412 945.606 148.638 938.926 148.638 C 932.901 148.638 928.099 150.472 924.52 154.14 C 920.941 157.808 918.824 163.013 918.167 169.753 L 959.415 169.664 Z" />
        <path d="M 1094.8 165.906 L 1094.8 230.953 L 1068.76 230.953 L 1068.76 169.932 C 1068.76 162.655 1067.73 157.451 1065.68 154.319 C 1063.62 151.187 1060.26 149.621 1055.61 149.621 C 1050.9 149.621 1047.19 151.739 1044.47 155.975 C 1041.76 160.209 1040.4 166.084 1040.4 173.6 L 1040.4 230.953 L 1014.37 230.953 L 1014.37 130.742 L 1040.4 130.742 L 1040.4 145.774 C 1042.26 140.227 1045.41 135.932 1049.89 132.89 C 1054.36 129.847 1059.76 128.326 1066.09 128.326 C 1075.56 128.326 1082.72 131.473 1087.56 137.766 C 1092.39 144.059 1094.8 153.439 1094.8 165.906 Z" />
        <path d="M 1196.6 133.875 L 1196.6 156.78 C 1191.78 153.678 1186.75 151.336 1181.53 149.756 C 1176.3 148.175 1171.07 147.385 1165.83 147.385 C 1159.97 147.385 1155.57 148.235 1152.58 149.935 C 1149.6 151.635 1148.12 154.155 1148.12 157.495 C 1148.12 162.267 1154.49 166.144 1167.25 169.127 L 1168.24 169.395 L 1175.75 171.185 C 1185.3 173.452 1192.3 177.105 1196.73 182.145 C 1201.18 187.186 1203.4 194 1203.4 202.59 C 1203.4 212.91 1200.02 220.649 1193.25 225.808 C 1186.47 230.968 1176.29 233.548 1162.69 233.548 C 1156.67 233.548 1150.5 233.026 1144.17 231.982 C 1137.85 230.939 1131.44 229.372 1124.93 227.284 L 1124.93 204.379 C 1130.73 207.66 1136.61 210.165 1142.61 211.895 C 1148.6 213.624 1154.41 214.49 1160.01 214.49 C 1166.15 214.49 1170.81 213.595 1173.97 211.805 C 1177.13 210.017 1178.71 207.422 1178.71 204.021 C 1178.71 200.681 1177.59 198.116 1175.36 196.326 C 1173.12 194.538 1167.79 192.629 1159.38 190.6 L 1152.14 188.99 C 1142.12 186.722 1134.81 183.174 1130.22 178.342 C 1125.63 173.511 1123.33 167.039 1123.33 158.927 C 1123.33 149.264 1126.82 141.748 1133.79 136.38 C 1140.78 131.011 1150.59 128.326 1163.23 128.326 C 1168.89 128.326 1174.55 128.789 1180.18 129.714 C 1185.82 130.638 1191.3 132.025 1196.6 133.875 Z" />
        <path d="M 1232.93 130.742 L 1284.82 130.742 L 1284.82 210.822 L 1317.38 210.822 L 1317.38 230.953 L 1225.94 230.953 L 1225.94 210.822 L 1258.6 210.822 L 1258.6 150.874 L 1232.93 150.874 L 1232.93 130.742 Z M 1258.6 81.98 L 1284.82 81.98 L 1284.82 112.58 L 1258.6 112.58 L 1258.6 81.98 Z" />
        <path d="M 1401.6 181.116 C 1401.6 171.453 1399.99 163.878 1396.78 158.39 C 1393.55 152.902 1389.11 150.159 1383.44 150.159 C 1377.77 150.159 1373.3 152.902 1370.02 158.39 C 1366.74 163.878 1365.1 171.453 1365.1 181.116 C 1365.1 190.779 1366.74 198.354 1370.02 203.842 C 1373.3 209.33 1377.77 212.074 1383.44 212.074 C 1389.11 212.074 1393.55 209.33 1396.78 203.842 C 1399.99 198.354 1401.6 190.779 1401.6 181.116 Z M 1365.1 144.969 C 1368.32 139.422 1372.06 135.261 1376.34 132.487 C 1380.59 129.713 1385.42 128.326 1390.78 128.326 C 1402.65 128.326 1411.79 132.86 1418.21 141.927 C 1424.62 150.993 1427.83 163.996 1427.83 180.937 C 1427.83 197.64 1424.66 210.584 1418.34 219.769 C 1412.02 228.955 1403.13 233.548 1391.68 233.548 C 1385.65 233.548 1380.4 232.086 1375.93 229.163 C 1371.45 226.241 1367.85 221.887 1365.1 216.1 L 1365.1 230.953 L 1338.97 230.953 L 1338.97 91.732 L 1365.1 91.732 L 1365.1 144.969 Z" />
        <path d="M 1454.63 189.169 L 1454.63 111.864 L 1428.06 111.864 L 1428.06 91.732 L 1480.86 91.732 L 1480.86 189.169 C 1480.86 197.043 1482.08 202.62 1484.52 205.901 C 1486.96 209.182 1491.11 210.822 1496.96 210.822 L 1517.89 210.822 L 1517.89 230.953 L 1489.62 230.953 C 1477.15 230.953 1468.2 227.732 1462.78 221.29 C 1457.35 214.848 1454.63 204.141 1454.63 189.169 Z" />
        <path d="M 1577.29 241.779 C 1573.78 251.203 1569.56 258.078 1564.64 262.403 C 1559.71 266.728 1553.74 268.89 1546.7 268.89 L 1525.05 268.89 L 1525.05 248.937 L 1535.7 248.937 C 1541.06 248.937 1545 248.027 1547.51 246.208 C 1550.01 244.389 1552.55 240.169 1555.11 233.548 L 1557.08 228.179 L 1518.96 130.742 L 1546.52 130.742 L 1569.42 195.79 L 1591.34 130.742 L 1618.9 130.742 L 1577.29 241.779 Z" />
    </g>
    <g fill="#007055">
        <path d="M 674.501 349.981 C 676.731 341.038 676.46 334.034 673.687 328.969 C 670.914 323.905 666.006 321.372 658.963 321.372 C 651.919 321.372 645.767 323.905 640.508 328.969 C 635.249 334.034 631.505 341.038 629.275 349.981 C 627.026 359.002 627.268 366.045 630.001 371.11 C 632.735 376.175 637.623 378.707 644.666 378.707 C 651.71 378.707 657.881 376.175 663.179 371.11 C 668.478 366.045 672.253 359.002 674.501 349.981 Z M 684.447 398.65 L 661.18 398.65 L 663.607 388.916 C 659.554 393.11 655.248 396.177 650.689 398.115 C 646.13 400.055 641.002 401.025 635.304 401.025 C 622.326 401.025 613.024 396.355 607.399 387.016 C 601.774 377.678 600.875 365.333 604.703 349.981 C 608.511 334.707 615.531 322.422 625.763 313.123 C 635.995 303.824 647.64 299.173 660.698 299.173 C 666.317 299.173 671.021 300.143 674.811 302.083 C 678.602 304.021 681.379 306.85 683.141 310.57 L 684.354 305.702 C 687.038 294.939 686.163 286.63 681.726 280.774 C 677.29 274.918 669.612 271.99 658.691 271.99 C 642.231 271.99 626.992 279.23 612.974 293.713 C 598.956 308.196 589.058 327.03 583.277 350.217 C 577.219 374.513 578.413 393.842 586.862 408.206 C 595.31 422.57 609.544 429.751 629.567 429.751 C 635.897 429.751 642.262 428.822 648.662 426.962 C 655.059 425.102 661.453 422.312 667.842 418.592 L 673.553 439.485 C 666.059 443.838 658.26 447.102 650.159 449.278 C 642.06 451.454 633.697 452.542 625.07 452.542 C 597.372 452.542 577.591 443.323 565.728 424.884 C 553.866 406.445 551.84 381.555 559.653 350.217 C 567.29 319.592 580.801 295.078 600.187 276.679 C 619.573 258.28 641.453 249.081 665.828 249.081 C 683.079 249.081 695.414 254.283 702.831 264.69 C 710.247 275.096 711.715 289.282 707.236 307.246 L 684.447 398.65 Z" />
        <path d="M 813.693 234.717 L 804.282 272.466 L 849.746 272.466 L 843.086 299.175 L 797.622 299.175 L 781.936 362.089 C 780.457 368.025 780.841 372.278 783.087 374.85 C 785.334 377.423 789.822 378.708 796.548 378.708 L 823.257 378.708 L 816.598 405.417 L 787.397 405.417 C 767.453 405.417 754.755 402.232 749.3 395.861 C 743.846 389.49 743.269 377.679 747.57 360.426 L 762.841 299.175 L 728.892 299.175 L 735.551 272.466 L 769.501 272.466 L 778.912 234.717 L 813.693 234.717 Z" />
        <path d="M 916.4 416.574 C 908.614 429.077 900.74 438.197 892.781 443.936 C 884.822 449.674 876.172 452.542 866.834 452.542 L 838.108 452.542 L 844.708 426.07 L 858.834 426.07 C 865.956 426.07 871.48 424.863 875.405 422.449 C 879.331 420.036 884.091 414.437 889.684 405.653 L 894.071 398.53 L 875.733 269.26 L 912.294 269.26 L 921.167 355.559 L 971.766 269.26 L 1008.33 269.26 L 916.4 416.574 Z" />
        <path d="M 1039.08 383.218 L 1021.8 452.542 L 987.133 452.542 L 1032.89 269.024 L 1067.55 269.024 L 1062.58 288.966 C 1068.13 281.29 1074.36 275.512 1081.27 271.634 C 1088.17 267.757 1095.62 265.817 1103.61 265.817 C 1118.8 265.817 1129.08 271.911 1134.42 284.099 C 1139.78 296.286 1139.69 313.459 1134.16 335.617 C 1128.56 358.093 1120 375.344 1108.5 387.373 C 1096.99 399.402 1083.36 405.417 1067.62 405.417 C 1060.49 405.417 1054.56 403.577 1049.82 399.897 C 1045.08 396.216 1041.5 390.657 1039.08 383.218 Z M 1099.44 335.379 C 1102.64 322.559 1103.01 312.509 1100.55 305.228 C 1098.09 297.947 1093.1 294.307 1085.58 294.307 C 1078.07 294.307 1071.22 297.947 1065.05 305.228 C 1058.89 312.509 1054.2 322.559 1051.01 335.379 C 1047.81 348.201 1047.48 358.251 1050.02 365.532 C 1052.56 372.813 1057.59 376.453 1065.1 376.453 C 1072.62 376.453 1079.42 372.813 1085.51 365.532 C 1091.6 358.251 1096.24 348.201 1099.44 335.379 Z" />
        <path d="M 1260.75 395.445 C 1251.85 398.769 1243 401.261 1234.2 402.924 C 1225.39 404.586 1216.33 405.417 1206.98 405.417 C 1184.75 405.417 1169.24 399.462 1160.46 387.551 C 1151.68 375.641 1150.08 358.488 1155.66 336.092 C 1161.07 314.408 1171 297.276 1185.45 284.692 C 1199.9 272.109 1216.91 265.817 1236.45 265.817 C 1256.16 265.817 1269.99 271.653 1277.97 283.327 C 1285.94 295 1287.28 311.441 1281.99 332.65 L 1278.47 346.776 L 1188.37 346.776 C 1185.85 357.221 1186.99 365.016 1191.8 370.16 C 1196.61 375.305 1205.06 377.876 1217.18 377.876 C 1225.17 377.876 1233.33 376.728 1241.65 374.434 C 1249.99 372.139 1259.01 368.499 1268.72 363.513 L 1260.75 395.445 Z M 1249.96 320.66 C 1252.09 311.48 1251.47 304.537 1248.1 299.827 C 1244.72 295.119 1238.6 292.765 1229.73 292.765 C 1221.74 292.765 1214.76 295.199 1208.81 300.065 C 1202.84 304.931 1198.31 311.837 1195.2 320.779 L 1249.96 320.66 Z" />
        <path fill="#235A97" d="M 1410.44 300.093 L 1426.21 236.793 L 1457.29 236.793 L 1416.02 402.332 L 1384.94 402.332 L 1389.34 384.671 C 1384.32 391.55 1378.71 396.728 1372.54 400.203 C 1366.39 403.68 1359.74 405.417 1352.57 405.417 C 1338.96 405.417 1329.75 399.956 1324.96 389.034 C 1320.15 378.111 1320.24 362.72 1325.2 342.86 C 1330.22 322.717 1337.88 307.257 1348.2 296.475 C 1358.49 285.694 1370.72 280.305 1384.84 280.305 C 1391.22 280.305 1396.54 281.953 1400.8 285.251 C 1405.05 288.551 1408.26 293.497 1410.44 300.093 Z M 1356.32 343.074 C 1353.44 354.563 1353.12 363.571 1355.33 370.096 C 1357.54 376.622 1362.01 379.885 1368.73 379.885 C 1375.46 379.885 1381.59 376.622 1387.14 370.096 C 1392.65 363.571 1396.85 354.563 1399.71 343.074 C 1402.58 331.584 1402.88 322.578 1400.61 316.051 C 1398.32 309.526 1393.83 306.264 1387.09 306.264 C 1380.35 306.264 1374.26 309.526 1368.8 316.051 C 1363.34 322.578 1359.17 331.584 1356.32 343.074 Z" />
    </g>
    <g fill="#3178c6">
        <path d="M 1280.61 375.965 L 1306.14 375.965 L 1300.42 405.272 L 1274.89 405.272 L 1280.61 375.965 Z" />
        <path d="M 1435.62 375.965 L 1461.14 375.965 L 1455.41 405.272 L 1429.89 405.272 L 1435.62 375.965 Z" />
        <path d="M 1522.7 300.956 L 1518.27 324.024 L 1548.52 324.024 L 1546.5 334.397 L 1516.16 334.397 L 1507.53 378.504 C 1507.25 379.955 1507.04 381.297 1506.89 382.53 C 1506.73 383.763 1506.66 384.912 1506.66 385.976 C 1506.66 389.168 1507.61 391.404 1509.49 392.685 C 1511.39 393.968 1514.78 394.609 1519.73 394.609 L 1534.74 394.609 L 1532.65 405.272 L 1516.47 405.272 C 1508.38 405.272 1502.44 403.93 1498.65 401.246 C 1494.85 398.562 1492.96 394.365 1492.96 388.66 C 1492.96 387.45 1493.06 386.023 1493.24 384.379 C 1493.44 382.736 1493.76 380.777 1494.19 378.504 L 1502.81 334.397 L 1481.13 334.397 L 1483.17 324.024 L 1504.86 324.024 L 1509.35 300.956 L 1522.7 300.956 Z" />
        <path d="M 1607.55 326.854 L 1605.01 339.91 C 1601.56 337.735 1597.96 336.077 1594.17 334.941 C 1590.37 333.806 1586.6 333.237 1582.87 333.237 C 1576.26 333.237 1571.11 334.47 1567.46 336.936 C 1563.81 339.404 1561.99 342.861 1561.99 347.31 C 1561.99 352.049 1567.33 355.773 1578.01 358.481 C 1578.74 358.674 1579.28 358.82 1579.62 358.918 L 1584.83 360.223 C 1590.48 361.723 1594.73 363.96 1597.53 366.933 C 1600.33 369.907 1601.74 373.619 1601.74 378.068 C 1601.74 386.821 1598.25 393.894 1591.29 399.287 C 1584.33 404.68 1575.09 407.376 1563.59 407.376 C 1559.67 407.376 1555.58 406.953 1551.32 406.107 C 1547.07 405.26 1542.54 403.99 1537.75 402.298 L 1540.44 388.515 C 1544.99 391.077 1549.4 393 1553.67 394.282 C 1557.95 395.563 1562.1 396.204 1566.13 396.204 C 1572.55 396.204 1577.79 394.765 1581.86 391.888 C 1585.92 389.011 1587.94 385.348 1587.94 380.898 C 1587.94 376.11 1583.21 372.459 1573.74 369.943 C 1572.87 369.75 1572.19 369.581 1571.71 369.436 L 1566.84 368.13 C 1560.62 366.534 1556.02 364.189 1553.1 361.093 C 1550.17 357.999 1548.71 353.961 1548.71 348.979 C 1548.71 340.757 1551.9 334.216 1558.29 329.357 C 1564.66 324.496 1573.29 322.066 1584.11 322.066 C 1588.37 322.066 1592.45 322.465 1596.37 323.263 C 1600.29 324.061 1604.01 325.257 1607.55 326.854 Z" />
    </g>
    <g fill="#007055">
        <path d="M 684.055 419.895 L 828.641 419.902 L 828.641 446.914 L 684.055 446.907 L 684.055 419.895 Z" />
        <path d="M 1037.73 420.24 L 1595.96 420.265 L 1595.96 447.277 L 1037.73 447.252 L 1037.73 420.24 Z" />
        <path d="M 977.209 446.91 L 918.296 446.907 L 918.296 419.895 L 977.209 419.898 L 977.209 446.91 Z" />
    </g>
</svg>