<svg xmlns="http://www.w3.org/2000/svg" viewBox="0 0 1700 512">
    <style>
        #name {
            color: #333333;
        }

        @media (prefers-color-scheme: dark) {
            #name {
                color: #4493f8;
            }
        }
    </style>
    <g fill="#333333">
        <rect fill="#F1DD35" x="6" y="6" width="500" height="500" rx="32" ry="32" />
        <path d="M 202.294 270.027 Q 185.615 270.027 177.939 287.813 Q 170.263 305.6 170.263 345.306 Q 170.263 384.865 177.939 402.652 Q 185.615 420.439 202.294 420.439 Q 219.121 420.439 226.797 402.652 Q 234.473 384.865 234.473 345.306 Q 234.473 305.6 226.797 287.813 Q 219.121 270.027 202.294 270.027 Z M 124.948 345.306 Q 124.948 288.773 144.506 259.842 Q 164.064 230.911 202.294 230.911 Q 240.672 230.911 260.23 259.842 Q 279.788 288.773 279.788 345.306 Q 279.788 401.692 260.23 430.624 Q 240.672 459.555 202.294 459.555 Q 164.064 459.555 144.506 430.624 Q 124.948 401.692 124.948 345.306 Z" />
        <path d="M 406.124 455.274 L 362.58 455.274 L 362.58 272.979 L 306.636 272.979 L 306.636 234.896 L 462.067 234.896 L 462.067 272.979 L 406.124 272.979 Z" />
    </g>
    <g id="name" fill="currentColor" stroke="currentColor">
        <path d="M 599.381 121.321 Q 589.449 121.321 584.879 131.912 Q 580.308 142.503 580.308 166.145 Q 580.308 189.7 584.879 200.291 Q 589.449 210.882 599.381 210.882 Q 609.4 210.882 613.97 200.291 Q 618.541 189.7 618.541 166.145 Q 618.541 142.503 613.97 131.912 Q 609.4 121.321 599.381 121.321 Z M 553.326 166.145 Q 553.326 132.483 564.971 115.257 Q 576.617 98.03 599.381 98.03 Q 622.232 98.03 633.878 115.257 Q 645.523 132.483 645.523 166.145 Q 645.523 199.72 633.878 216.946 Q 622.232 234.173 599.381 234.173 Q 576.617 234.173 564.971 216.946 Q 553.326 199.72 553.326 166.145 Z" />
        <path d="M 740.674 136.263 L 740.674 158.763 Q 733.555 154.192 725.865 151.863 Q 718.174 149.534 710.44 149.534 Q 701.827 149.534 697.432 152.039 Q 693.038 154.544 693.038 159.466 Q 693.038 166.497 711.846 170.892 L 712.813 171.155 L 720.196 172.913 Q 734.258 176.253 740.806 183.68 Q 747.354 191.106 747.354 203.763 Q 747.354 218.968 737.379 226.57 Q 727.403 234.173 707.364 234.173 Q 698.487 234.173 689.171 232.635 Q 679.854 231.097 670.274 228.02 L 670.274 205.52 Q 678.799 210.354 687.632 212.903 Q 696.465 215.452 704.727 215.452 Q 713.78 215.452 718.438 212.815 Q 723.096 210.179 723.096 205.169 Q 723.096 200.247 719.8 197.61 Q 716.505 194.974 704.112 191.985 L 696.993 190.403 Q 682.227 187.063 675.46 179.944 Q 668.692 172.825 668.692 160.872 Q 668.692 146.634 678.975 138.724 Q 689.258 130.813 707.891 130.813 Q 716.241 130.813 724.547 132.176 Q 732.852 133.538 740.674 136.263 Z" />
        <path d="M 822.585 105.237 L 822.585 133.186 L 856.247 133.186 L 856.247 152.962 L 822.585 152.962 L 822.585 199.544 Q 822.585 206.136 825.793 208.992 Q 829.001 211.849 836.472 211.849 L 856.247 211.849 L 856.247 231.624 L 834.626 231.624 Q 812.478 231.624 804.655 224.549 Q 796.833 217.474 796.833 198.313 L 796.833 152.962 L 771.696 152.962 L 771.696 133.186 L 796.833 133.186 L 796.833 105.237 Z" />
        <path d="M 967.161 226.79 Q 958.197 230.481 948.88 232.327 Q 939.564 234.173 929.193 234.173 Q 904.495 234.173 891.444 220.945 Q 878.392 207.718 878.392 182.845 Q 878.392 158.763 890.96 144.788 Q 903.529 130.813 925.238 130.813 Q 947.122 130.813 959.207 143.777 Q 971.292 156.741 971.292 180.296 L 971.292 190.755 L 904.583 190.755 Q 904.671 202.356 911.439 208.069 Q 918.206 213.782 931.654 213.782 Q 940.531 213.782 949.144 211.233 Q 957.757 208.685 967.161 203.147 Z M 945.365 171.419 Q 945.189 161.224 940.135 155.994 Q 935.081 150.765 925.238 150.765 Q 916.361 150.765 911.087 156.17 Q 905.814 161.575 904.847 171.507 Z" />
        <path d="M 1072.802 167.728 L 1072.802 231.624 L 1047.226 231.624 L 1047.226 171.683 Q 1047.226 160.96 1044.194 156.346 Q 1041.162 151.731 1034.306 151.731 Q 1027.363 151.731 1023.364 157.972 Q 1019.365 164.212 1019.365 175.286 L 1019.365 231.624 L 993.789 231.624 L 993.789 133.186 L 1019.365 133.186 L 1019.365 147.952 Q 1022.09 139.778 1028.681 135.296 Q 1035.273 130.813 1044.59 130.813 Q 1058.564 130.813 1065.683 140.086 Q 1072.802 149.358 1072.802 167.728 Z" />
        <path d="M 1174.137 136.263 L 1174.137 158.763 Q 1167.018 154.192 1159.327 151.863 Q 1151.637 149.534 1143.902 149.534 Q 1135.289 149.534 1130.895 152.039 Q 1126.5 154.544 1126.5 159.466 Q 1126.5 166.497 1145.309 170.892 L 1146.276 171.155 L 1153.658 172.913 Q 1167.721 176.253 1174.269 183.68 Q 1180.817 191.106 1180.817 203.763 Q 1180.817 218.968 1170.841 226.57 Q 1160.865 234.173 1140.826 234.173 Q 1131.949 234.173 1122.633 232.635 Q 1113.317 231.097 1103.736 228.02 L 1103.736 205.52 Q 1112.262 210.354 1121.095 212.903 Q 1129.928 215.452 1138.19 215.452 Q 1147.242 215.452 1151.901 212.815 Q 1156.559 210.179 1156.559 205.169 Q 1156.559 200.247 1153.263 197.61 Q 1149.967 194.974 1137.574 191.985 L 1130.455 190.403 Q 1115.69 187.063 1108.922 179.944 Q 1102.154 172.825 1102.154 160.872 Q 1102.154 146.634 1112.438 138.724 Q 1122.721 130.813 1141.354 130.813 Q 1149.703 130.813 1158.009 132.176 Q 1166.315 133.538 1174.137 136.263 Z" />
        <path d="M 1214.827 133.186 L 1265.803 133.186 L 1265.803 211.849 L 1297.795 211.849 L 1297.795 231.624 L 1207.971 231.624 L 1207.971 211.849 L 1240.051 211.849 L 1240.051 152.962 L 1214.827 152.962 Z M 1240.051 85.286 L 1265.803 85.286 L 1265.803 115.345 L 1240.051 115.345 Z" />
        <path d="M 1378.445 182.669 Q 1378.445 168.431 1373.699 160.345 Q 1368.953 152.259 1360.603 152.259 Q 1352.253 152.259 1347.419 160.345 Q 1342.585 168.431 1342.585 182.669 Q 1342.585 196.907 1347.419 204.993 Q 1352.253 213.079 1360.603 213.079 Q 1368.953 213.079 1373.699 204.993 Q 1378.445 196.907 1378.445 182.669 Z M 1342.585 147.161 Q 1347.331 138.987 1353.616 134.9 Q 1359.9 130.813 1367.81 130.813 Q 1385.3 130.813 1394.748 144.173 Q 1404.197 157.532 1404.197 182.493 Q 1404.197 207.103 1394.88 220.638 Q 1385.564 234.173 1368.689 234.173 Q 1359.812 234.173 1353.22 229.866 Q 1346.628 225.56 1342.585 217.034 L 1342.585 231.624 L 1316.921 231.624 L 1316.921 94.866 L 1342.585 94.866 Z" />
        <path d="M 1446.117 190.579 L 1446.117 114.642 L 1420.013 114.642 L 1420.013 94.866 L 1471.869 94.866 L 1471.869 190.579 Q 1471.869 202.181 1475.472 207.015 Q 1479.076 211.849 1487.689 211.849 L 1508.256 211.849 L 1508.256 231.624 L 1480.482 231.624 Q 1462.113 231.624 1454.115 222.132 Q 1446.117 212.64 1446.117 190.579 Z" />
        <path d="M 1582.959 242.259 Q 1577.774 256.145 1570.523 262.518 Q 1563.272 268.89 1552.901 268.89 L 1531.631 268.89 L 1531.631 249.29 L 1542.09 249.29 Q 1550 249.29 1553.692 246.609 Q 1557.383 243.929 1561.162 234.173 L 1563.096 228.899 L 1525.654 133.186 L 1552.725 133.186 L 1575.225 197.083 L 1596.758 133.186 L 1623.828 133.186 Z" />
        <path stroke-width="20px" d="M 545 250 L 1525 250.005" />
        <path stroke-width="20px" d="M 1590 250 L 1635 250.002" />
    </g>
    <g fill="#007055">
        <path d="M 633.479 378.605 C 635.13 371.984 634.929 366.798 632.876 363.048 C 630.823 359.298 627.189 357.423 621.974 357.423 C 616.759 357.423 612.204 359.298 608.31 363.048 C 604.416 366.798 601.644 371.984 599.993 378.605 C 598.328 385.284 598.507 390.499 600.531 394.249 C 602.555 397.999 606.174 399.874 611.389 399.874 C 616.604 399.874 621.173 397.999 625.096 394.249 C 629.019 390.499 631.814 385.284 633.479 378.605 Z M 640.843 414.64 L 623.616 414.64 L 625.413 407.433 C 622.412 410.538 619.224 412.809 615.848 414.244 C 612.473 415.68 608.676 416.398 604.457 416.398 C 594.848 416.398 587.961 412.941 583.796 406.026 C 579.631 399.112 578.966 389.972 581.8 378.605 C 584.619 367.296 589.817 358.2 597.393 351.315 C 604.969 344.43 613.591 340.987 623.259 340.987 C 627.419 340.987 630.902 341.705 633.708 343.141 C 636.515 344.576 638.571 346.671 639.876 349.425 L 640.774 345.821 C 642.761 337.852 642.113 331.7 638.828 327.364 C 635.544 323.028 629.859 320.86 621.773 320.86 C 609.586 320.86 598.303 326.221 587.924 336.944 C 577.545 347.667 570.216 361.612 565.936 378.78 C 561.451 396.769 562.335 411.08 568.59 421.715 C 574.845 432.35 585.384 437.667 600.209 437.667 C 604.896 437.667 609.609 436.979 614.347 435.602 C 619.084 434.225 623.818 432.159 628.548 429.405 L 632.777 444.874 C 627.228 448.097 621.454 450.514 615.456 452.125 C 609.459 453.736 603.267 454.542 596.88 454.542 C 576.372 454.542 561.726 447.716 552.943 434.064 C 544.16 420.411 542.66 401.983 548.445 378.78 C 554.099 356.105 564.103 337.955 578.456 324.332 C 592.81 310.709 609.01 303.898 627.057 303.898 C 639.83 303.898 648.963 307.75 654.454 315.455 C 659.945 323.16 661.032 333.663 657.716 346.964 L 640.843 414.64 Z" />
        <path d="M 736.537 293.263 L 729.569 321.213 L 763.231 321.213 L 758.3 340.988 L 724.638 340.988 L 713.024 387.57 C 711.929 391.965 712.213 395.114 713.876 397.018 C 715.54 398.923 718.863 399.875 723.843 399.875 L 743.618 399.875 L 738.688 419.65 L 717.067 419.65 C 702.301 419.65 692.899 417.292 688.86 412.575 C 684.822 407.858 684.395 399.113 687.579 386.339 L 698.886 340.988 L 673.75 340.988 L 678.68 321.213 L 703.817 321.213 L 710.785 293.263 L 736.537 293.263 Z" />
        <path d="M 812.582 427.911 C 806.817 437.168 800.987 443.921 795.094 448.17 C 789.201 452.418 782.797 454.542 775.883 454.542 L 754.614 454.542 L 759.501 434.942 L 769.96 434.942 C 775.233 434.942 779.323 434.048 782.229 432.261 C 785.136 430.474 788.66 426.329 792.801 419.825 L 796.049 414.551 L 782.472 318.839 L 809.542 318.839 L 816.111 382.735 L 853.575 318.839 L 880.646 318.839 L 812.582 427.911 Z" />
        <path d="M 903.415 403.214 L 890.618 454.542 L 864.953 454.542 L 898.832 318.664 L 924.496 318.664 L 920.814 333.429 C 924.927 327.746 929.539 323.468 934.649 320.597 C 939.759 317.726 945.273 316.29 951.191 316.29 C 962.441 316.29 970.047 320.802 974.008 329.826 C 977.97 338.849 977.905 351.564 973.814 367.97 C 969.665 384.611 963.331 397.384 954.811 406.29 C 946.292 415.197 936.202 419.65 924.542 419.65 C 919.269 419.65 914.877 418.288 911.366 415.563 C 907.856 412.838 905.206 408.722 903.415 403.214 Z M 948.106 367.794 C 950.473 358.302 950.746 350.861 948.926 345.47 C 947.106 340.079 943.413 337.384 937.846 337.384 C 932.28 337.384 927.213 340.079 922.646 345.47 C 918.08 350.861 914.613 358.302 912.246 367.794 C 909.88 377.287 909.636 384.728 911.514 390.119 C 913.393 395.51 917.116 398.205 922.682 398.205 C 928.248 398.205 933.285 395.51 937.793 390.119 C 942.302 384.728 945.74 377.287 948.106 367.794 Z" />
        <path d="M 1067.54 412.267 C 1060.95 414.728 1054.4 416.573 1047.88 417.804 C 1041.36 419.035 1034.65 419.65 1027.73 419.65 C 1011.27 419.65 999.785 415.241 993.283 406.422 C 986.781 397.604 985.596 384.904 989.73 368.322 C 993.734 352.267 1001.09 339.582 1011.79 330.265 C 1022.49 320.948 1035.08 316.29 1049.55 316.29 C 1064.14 316.29 1074.38 320.611 1080.29 329.254 C 1086.19 337.897 1087.18 350.07 1083.27 365.773 L 1080.66 376.232 L 1013.95 376.232 C 1012.08 383.966 1012.93 389.737 1016.49 393.546 C 1020.05 397.355 1026.31 399.259 1035.28 399.259 C 1041.2 399.259 1047.24 398.409 1053.4 396.71 C 1059.57 395.011 1066.25 392.316 1073.44 388.624 L 1067.54 412.267 Z M 1059.55 356.896 C 1061.13 350.099 1060.67 344.958 1058.17 341.471 C 1055.67 337.985 1051.14 336.242 1044.57 336.242 C 1038.66 336.242 1033.49 338.044 1029.08 341.647 C 1024.66 345.25 1021.31 350.363 1019.01 356.984 L 1059.55 356.896 Z" />
        <path fill="#235A97" d="M 1180.82 332.638 L 1193.86 280.343 L 1219.52 280.343 L 1185.43 417.101 L 1159.76 417.101 L 1163.4 402.511 C 1159.23 408.195 1154.6 412.472 1149.52 415.343 C 1144.44 418.214 1138.94 419.65 1133.02 419.65 C 1121.77 419.65 1114.17 415.138 1110.21 406.115 C 1106.24 397.092 1106.31 384.377 1110.4 367.97 C 1114.55 351.329 1120.88 338.556 1129.4 329.65 C 1137.92 320.743 1148.01 316.29 1159.67 316.29 C 1164.94 316.29 1169.34 317.652 1172.85 320.377 C 1176.36 323.102 1179.02 327.189 1180.82 332.638 Z M 1136.11 368.146 C 1133.74 377.638 1133.47 385.079 1135.29 390.47 C 1137.11 395.861 1140.8 398.556 1146.37 398.556 C 1151.93 398.556 1157 395.861 1161.57 390.47 C 1166.13 385.079 1169.6 377.638 1171.97 368.146 C 1174.33 358.654 1174.58 351.213 1172.7 345.822 C 1170.82 340.431 1167.1 337.736 1161.53 337.736 C 1155.96 337.736 1150.93 340.431 1146.42 345.822 C 1141.91 351.213 1138.47 358.654 1136.11 368.146 Z" />
    </g>
    <g fill="#3178c6">
        <path d="M 1197.01 397.844 L 1215.91 397.844 L 1211.67 419.543 L 1192.77 419.543 L 1197.01 397.844 Z" />
        <path d="M 1261.49 342.307 L 1258.21 359.387 L 1280.61 359.387 L 1279.11 367.067 L 1256.65 367.067 L 1250.26 399.724 C 1250.05 400.798 1249.89 401.792 1249.78 402.705 C 1249.67 403.618 1249.62 404.468 1249.62 405.256 C 1249.62 407.619 1250.32 409.275 1251.71 410.224 C 1253.11 411.173 1255.63 411.648 1259.29 411.648 L 1270.4 411.648 L 1268.85 419.543 L 1256.87 419.543 C 1250.89 419.543 1246.49 418.549 1243.68 416.562 C 1240.87 414.575 1239.47 411.468 1239.47 407.243 C 1239.47 406.348 1239.54 405.291 1239.68 404.074 C 1239.83 402.857 1240.06 401.407 1240.38 399.724 L 1246.77 367.067 L 1230.71 367.067 L 1232.22 359.387 L 1248.28 359.387 L 1251.61 342.307 L 1261.49 342.307 Z" />
        <path d="M 1324.31 361.482 L 1322.43 371.149 C 1319.88 369.538 1317.21 368.311 1314.4 367.47 C 1311.59 366.629 1308.8 366.208 1306.04 366.208 C 1301.14 366.208 1297.33 367.121 1294.63 368.947 C 1291.93 370.774 1290.58 373.334 1290.58 376.628 C 1290.58 380.137 1294.53 382.894 1302.44 384.899 C 1302.98 385.042 1303.38 385.15 1303.63 385.222 L 1307.49 386.189 C 1311.68 387.299 1314.82 388.955 1316.89 391.157 C 1318.97 393.359 1320.01 396.107 1320.01 399.401 C 1320.01 405.882 1317.43 411.119 1312.27 415.112 C 1307.12 419.105 1300.28 421.101 1291.76 421.101 C 1288.86 421.101 1285.83 420.788 1282.68 420.161 C 1279.53 419.534 1276.18 418.594 1272.63 417.341 L 1274.62 407.136 C 1277.99 409.033 1281.26 410.457 1284.42 411.406 C 1287.59 412.355 1290.66 412.829 1293.64 412.829 C 1298.4 412.829 1302.28 411.764 1305.29 409.633 C 1308.3 407.503 1309.8 404.791 1309.8 401.496 C 1309.8 397.951 1306.29 395.248 1299.28 393.386 C 1298.63 393.243 1298.13 393.117 1297.77 393.01 L 1294.17 392.043 C 1289.56 390.862 1286.16 389.125 1283.99 386.833 C 1281.83 384.542 1280.75 381.552 1280.75 377.863 C 1280.75 371.776 1283.11 366.933 1287.84 363.335 C 1292.56 359.736 1298.94 357.937 1306.96 357.937 C 1310.11 357.937 1313.13 358.232 1316.03 358.823 C 1318.93 359.414 1321.69 360.3 1324.31 361.482 Z" />
        <path d="M 1082.25 397.844 L 1101.15 397.844 L 1096.91 419.543 L 1078.01 419.543 L 1082.25 397.844 Z" />
    </g>
</svg>